<svg xmlns="http://www.w3.org/2000/svg" width="1420" height="760" viewBox="0 0 1420 760">
  <rect width="1420" height="760" fill="#f4f5ed"/>
  <rect x="38" y="34" width="1344" height="692" rx="14" fill="#fbfbf6" stroke="#d3d7ca"/>
  <text x="72" y="88" font-family="Arial, sans-serif" font-size="24" font-weight="700" fill="#161a16">DeltaDotta</text>
  <text x="72" y="134" font-family="Georgia, serif" font-size="52" font-weight="600" fill="#161a16">Operating map</text>
  <text x="72" y="170" font-family="Arial, sans-serif" font-size="21" fill="#667064">Owners, boundaries, handoffs, and source-linked role skills in one preflighted view.</text>

  <line x1="710" y1="258" x2="710" y2="328" stroke="#b8bdae" stroke-width="2"/>
  <line x1="310" y1="328" x2="1110" y2="328" stroke="#b8bdae" stroke-width="2"/>
  <line x1="310" y1="328" x2="310" y2="374" stroke="#b8bdae" stroke-width="2"/>
  <line x1="510" y1="328" x2="510" y2="374" stroke="#b8bdae" stroke-width="2"/>
  <line x1="710" y1="328" x2="710" y2="374" stroke="#b8bdae" stroke-width="2"/>
  <line x1="910" y1="328" x2="910" y2="374" stroke="#b8bdae" stroke-width="2"/>
  <line x1="1110" y1="328" x2="1110" y2="374" stroke="#b8bdae" stroke-width="2"/>

  <rect x="545" y="204" width="330" height="92" rx="7" fill="#161a16"/>
  <text x="574" y="238" font-family="Menlo, monospace" font-size="13" fill="#c8ff3c">owner · escalation boundary</text>
  <text x="574" y="268" font-family="Arial, sans-serif" font-size="25" font-weight="700" fill="#ffffff">Engineering Lead</text>

  <g font-family="Arial, sans-serif">
    <rect x="190" y="374" width="240" height="128" rx="7" fill="#ffffff" stroke="#8ea457" stroke-width="3"/>
    <text x="212" y="410" font-family="Menlo, monospace" font-size="12" fill="#7a9f29">preflighted · safe authority</text>
    <text x="212" y="444" font-size="23" font-weight="700" fill="#161a16">DevOps / Platform</text>
    <text x="212" y="474" font-size="16" fill="#667064">May stop or roll back</text>

    <rect x="470" y="374" width="240" height="128" rx="7" fill="#ffffff" stroke="#d3d7ca"/>
    <text x="492" y="410" font-family="Menlo, monospace" font-size="12" fill="#7a9f29">handoff · evidence</text>
    <text x="492" y="444" font-size="23" font-weight="700" fill="#161a16">Software Engineer</text>
    <text x="492" y="474" font-size="16" fill="#667064">Receives evidence</text>

    <rect x="750" y="374" width="240" height="128" rx="7" fill="#ffffff" stroke="#d3d7ca"/>
    <text x="772" y="410" font-family="Menlo, monospace" font-size="12" fill="#7a9f29">context · source linked</text>
    <text x="772" y="444" font-size="23" font-weight="700" fill="#161a16">Product Designer</text>
    <text x="772" y="474" font-size="16" fill="#667064">Product context visible</text>

    <rect x="1030" y="374" width="240" height="128" rx="7" fill="#ffffff" stroke="#d3d7ca"/>
    <text x="1052" y="410" font-family="Menlo, monospace" font-size="12" fill="#7a9f29">risk · release boundary</text>
    <text x="1052" y="444" font-size="23" font-weight="700" fill="#161a16">QA Engineer</text>
    <text x="1052" y="474" font-size="16" fill="#667064">Release risk boundary</text>
  </g>

  <rect x="190" y="546" width="1080" height="106" rx="7" fill="#eef0e6" stroke="#d3d7ca"/>
  <text x="224" y="576" font-family="Arial, sans-serif" font-size="18" font-weight="700" fill="#161a16">Incident-ready answer</text>
  <text x="224" y="606" font-family="Arial, sans-serif" font-size="18" fill="#4f584e">DevOps / Platform Engineer cites product knowledge, runbooks, CODEOWNERS, and AGENTS.md</text>
  <text x="224" y="632" font-family="Arial, sans-serif" font-size="18" fill="#4f584e">before recommending the next step.</text>
</svg>
